<?xml version="1.0" encoding="UTF-8"?>
<svg width="122px" height="61px" viewBox="0 0 122 61" version="1.1" xmlns="http://www.w3.org/2000/svg" xmlns:xlink="http://www.w3.org/1999/xlink">
    <!-- Generator: Sketch 42 (36781) - http://www.bohemiancoding.com/sketch -->
    <title>Logo</title>
    <desc>Created with Sketch.</desc>
    <defs></defs>
    <g id="Symbols" stroke="none" stroke-width="1" fill="none" fill-rule="evenodd">
        <g id="Logo">
            <g id="lumavate-color.2">
                <g id="lumavate-color">
                    <g id="color">
                        <g id="lumavate-color">
                            <rect id="Bounding-Box" x="0" y="0" width="122" height="61"></rect>
                            <g id="lumavate_logo_fullcolor" transform="translate(8.133333, 20.740000)" fill-rule="nonzero">
                                <polygon id="Fill-1" fill="#FFFFFF" points="0 3.94058193 2.99245546 3.94058193 2.99245546 19.3630447 0 19.3630447"></polygon>
                                <polyline id="Fill-2" fill="#FFFFFF" points="60.743765 19.3381025 56.0235419 6.88007703 59.4806108 6.88007703 62.4502051 14.6726056 65.4197294 6.88007703 68.8768678 6.88007703 64.1565751 19.3381025 60.743765 19.3381025"></polyline>
                                <path d="M88.7253914,9.38572206 L88.7253914,14.9254981 C88.7253914,15.4006293 88.8438794,15.7723769 89.0801593,16.040307 C89.3164387,16.3086708 89.5973254,16.4426358 89.9221228,16.4426358 C90.5424436,16.4426358 91.0672766,16.1517155 91.4959252,15.5690797 L92.7365668,17.9826915 C91.7022341,18.9636077 90.6128392,19.4538489 89.4676854,19.4538489 C88.3232282,19.4538489 87.3551098,19.0630874 86.5647234,18.2815645 C85.7743371,17.4999692 85.3791441,16.4350447 85.3791441,15.0863573 L85.3791441,9.38572206 L83.9830737,9.38572206 L83.9830737,6.90306728 L85.3791441,6.90306728 L85.3791441,3.20221985 L88.7253914,3.20221985 L88.7253914,6.90306728 L91.6067467,6.90306728 L91.6067467,9.38572206 L88.7253914,9.38572206" id="Fill-3" fill="#FFFFFF"></path>
                                <path d="M13.761852,6.90306728 L13.761852,13.7741795 L13.761155,13.7741795 C13.7458212,15.0778264 12.7227798,16.1299544 11.462274,16.1299544 C10.2017681,16.1299544 9.17872669,15.0778264 9.16346262,13.7741795 L9.16269593,13.7741795 L9.16269593,6.90306728 L5.93904902,6.90306728 L5.93904902,13.6254661 C5.93904902,15.9492859 7.25879894,17.9523271 9.16269593,18.8751893 C9.87996801,19.2228622 10.6796242,19.4181345 11.5236091,19.4181345 C12.3197804,19.4181345 13.0764323,19.2441896 13.761852,18.9326649 C15.7314751,18.0376367 17.1081691,15.9988089 17.1081691,13.6254661 L17.1081691,6.90306728 L13.761852,6.90306728" id="Fill-4" fill="#FFFFFF"></path>
                                <path d="M35.9792342,7.26852503 C35.2619621,6.92085215 34.4623059,6.72557985 33.6183908,6.72557985 C32.8221498,6.72557985 32.0654978,6.89952472 31.3801479,7.21097718 C30.720238,7.51086221 30.1273786,7.93965154 29.6300765,8.46589631 C29.1637904,7.97240179 28.6134473,7.56465067 28.0026056,7.26852503 C27.2853335,6.92085215 26.4856773,6.72557985 25.6416925,6.72557985 C24.8455211,6.72557985 24.0888692,6.89952472 23.4034495,7.21097718 C21.4337567,8.10607764 20.0571324,10.1449055 20.0571324,12.518176 L20.0571324,19.3087502 L23.4034495,19.3087502 L23.4034495,12.3695348 L23.4041465,12.3695348 C23.4194803,11.065888 24.4425217,10.01376 25.7030275,10.01376 C26.9634637,10.01376 27.9865748,11.065888 28.0018389,12.3695348 L28.0026056,12.3695348 L28.0026056,19.3087502 L31.3801479,19.3087502 L31.3801479,12.3695348 L31.3808448,12.3695348 C31.3961089,11.065888 32.41922,10.01376 33.6796562,10.01376 C34.940162,10.01376 35.9632034,11.065888 35.9785372,12.3695348 L35.9792342,12.3695348 L35.9792342,19.3087502 L39.2029508,19.3087502 L39.2029508,12.518176 C39.2029508,10.1944285 37.8832009,8.19138728 35.9792342,7.26852503" id="Fill-5" fill="#FFFFFF"></path>
                                <path d="M76.1900321,16.7985505 C74.1701562,16.7985505 72.5329272,15.1002382 72.5329272,13.0053807 C72.5329272,10.910451 74.1701562,9.21213867 76.1900321,9.21213867 C77.3498231,9.21213867 78.3827617,9.77279646 79.0525685,10.6462803 C79.5495221,11.2939828 79.8471371,12.113389 79.8471371,13.0053807 C79.8471371,13.8973002 79.5495221,14.7167064 79.0525685,15.3644089 C78.3827617,16.2378927 77.3498231,16.7985505 76.1900321,16.7985505 L76.1900321,16.7985505 Z M79.0525685,7.31674667 C78.1966653,6.85217067 77.2229707,6.58807231 76.1900321,6.58807231 C72.7733888,6.58807231 70.0035516,9.46119939 70.0035516,13.0053807 C70.0035516,16.5494898 72.7733888,19.4226169 76.1900321,19.4226169 L82.3765122,19.4061333 L82.3765122,13.0053807 C82.3765122,10.5328474 81.0278372,8.38839467 79.0525685,7.31674667 L79.0525685,7.31674667 Z" id="Fill-6" fill="#FFFFFF"></path>
                                <path d="M99.6290979,9.30590697 C101.256569,9.30590697 102.63382,10.4141369 103.099409,11.9426252 L96.1587863,11.9426252 C96.6243754,10.4141369 98.0016268,9.30590697 99.6290979,9.30590697 L99.6290979,9.30590697 Z M99.6290979,16.8549416 C98.0678407,16.8549416 96.7365905,15.8347686 96.2201214,14.4022175 L105.589057,14.4022175 C105.671998,13.9825375 105.715908,13.5478922 105.715908,13.1026915 C105.715908,9.55851021 102.946072,6.68538312 99.5294284,6.68538312 C96.112088,6.68538312 93.3422508,9.55851021 93.3422508,13.1026915 C93.3422508,16.6468729 96.112088,19.52 99.5294284,19.52 C102.177989,19.52 104.436932,17.7931307 105.318624,15.3660717 L102.524393,15.3660717 C101.859465,16.2707153 100.810495,16.8549416 99.6290979,16.8549416 L99.6290979,16.8549416 Z" id="Fill-8" fill="#FFFFFF"></path>
                                <path d="M47.8955274,9.21213867 C48.8746583,9.21213867 49.7624836,9.61280472 50.4186997,10.2630376 L52.3501276,8.55510994 C51.8889993,8.05894046 51.3521778,7.63904354 50.7581333,7.31674667 C49.9019516,6.85217067 48.928675,6.58807231 47.8955274,6.58807231 C46.1393223,6.58807231 44.5540889,7.34725569 43.427963,8.56624354 L45.3486574,10.2846542 C46.0071732,9.62126339 46.905035,9.21213867 47.8955274,9.21213867" id="Fill-10" fill="#EC932D"></path>
                                <path d="M47.8553804,5.71972149 C49.8659168,5.71972149 51.6807388,6.60426667 52.9581118,8.01744236 L54.8092466,6.38058194 C53.0862882,4.42742518 50.6089078,3.20221985 47.8553804,3.20221985 C45.121578,3.20221985 42.6600893,4.41021867 40.938734,6.33915615 L42.7802504,7.98671646 C44.0560898,6.59132564 45.8594112,5.71972149 47.8553804,5.71972149" id="Fill-11" fill="#EC932D"></path>
                                <path d="M52.7801003,9.06906431 L50.8518786,10.7741002 C51.2920277,11.4003307 51.5524229,12.1710815 51.5524229,13.0053807 C51.5524229,13.8319443 51.296558,14.5959715 50.8637276,15.219021 C50.8295054,15.2682548 50.7945162,15.3169102 50.7581333,15.3644089 C50.7263507,15.4057624 50.6930346,15.4457422 50.6597184,15.4857221 C50.5879982,15.5716101 50.5125144,15.6538833 50.4337545,15.7328308 C49.7760752,16.3918115 48.8821857,16.7985505 47.8955274,16.7985505 C46.8823829,16.7985505 45.965563,16.3709902 45.3032832,15.6805606 C45.2261263,15.6000948 45.1525245,15.5160865 45.082477,15.4287526 C45.012499,15.3414187 44.9465641,15.2506145 44.884253,15.1569908 C44.47742,14.5455087 44.2386315,13.8044717 44.2386315,13.0053807 C44.2386315,12.1827212 44.4919177,11.4219473 44.9208449,10.800416 L42.9999415,9.08178846 C42.1906667,10.1666667 41.7087679,11.5275722 41.7087679,13.0053807 C41.7087679,14.4542708 42.1719177,15.7908847 42.9526856,16.8649908 C43.0186209,16.9556504 43.0869258,17.0443579 43.1572519,17.1311858 C43.227648,17.2180859 43.3002046,17.3029618 43.3748524,17.3858133 C44.5039754,18.6389973 46.1113729,19.4226169 47.8955274,19.4226169 L51.0824427,19.4141582 L54.0822865,19.4061333 L54.0822865,13.0053807 C54.0822865,11.5212824 53.5958574,10.1556776 52.7801003,9.06906431" id="Fill-12" fill="#FFFFFF"></path>
                                <path d="M40.5405437,5.38932739 C42.494415,3.36264533 45.0922346,2.24646282 47.8553804,2.24646282 C50.6185963,2.24646282 53.2164163,3.36264533 55.1702174,5.38932739 C55.2870332,5.510496 55.400503,5.63419497 55.5110455,5.75999051 L57.1335679,4.32519821 C54.8497417,1.69173333 51.5392497,0.0352805926 47.8553804,0.0352805926 C44.1975789,0.0352805926 40.907439,1.66809245 38.6253555,4.26931318 L40.2405593,5.71451615 C40.338347,5.60440888 40.4379468,5.49574754 40.5405437,5.38932739" id="Fill-13" fill="#EC932D"></path>
                            </g>
                        </g>
                    </g>
                </g>
            </g>
        </g>
    </g>
</svg>